<mxfile modified="2021-01-14T19:41:15.199Z" host="app.diagrams.net" agent="5.0 (Windows NT 10.0; Win64; x64) AppleWebKit/537.36 (KHTML, like Gecko) Chrome/87.0.4280.141 Safari/537.36" etag="0AInAl4B1-eO8VgDSqB3" version="14.2.3" type="github">
  <diagram id="f106602c-feb2-e66a-4537-3a34d633f6aa" name="Page-1">
    <mxGraphModel dx="2089" dy="596" grid="1" gridSize="10" guides="1" tooltips="1" connect="1" arrows="1" fold="1" page="1" pageScale="1" pageWidth="1169" pageHeight="827" background="#ffffff" math="0" shadow="0">
      <root>
        <mxCell id="0" />
        <mxCell id="1" parent="0" />
        <mxCell id="C-yEnUiBXdjGMgicQ9S--25" value="" style="points=[[0,0,0],[0.25,0,0],[0.5,0,0],[0.75,0,0],[1,0,0],[1,0.25,0],[1,0.5,0],[1,0.75,0],[1,1,0],[0.75,1,0],[0.5,1,0],[0.25,1,0],[0,1,0],[0,0.75,0],[0,0.5,0],[0,0.25,0]];rounded=1;absoluteArcSize=1;arcSize=2;html=1;strokeColor=none;gradientColor=none;shadow=0;dashed=0;fontSize=12;fontColor=#9E9E9E;align=left;verticalAlign=top;spacing=10;spacingTop=-4;fillColor=#EFEBE9;" vertex="1" parent="1">
          <mxGeometry x="90" y="90" width="760" height="620" as="geometry" />
        </mxCell>
        <mxCell id="2" value="Architecture: ION Onboarding&amp;nbsp;" style="fillColor=#4DA1F5;strokeColor=none;shadow=1;gradientColor=none;fontSize=14;align=left;spacingLeft=50;fontColor=#ffffff;html=1;" parent="1" vertex="1">
          <mxGeometry x="85" y="40" width="765" height="40" as="geometry" />
        </mxCell>
        <mxCell id="12" value="" style="strokeColor=#dddddd;fillColor=#ffffff;shadow=1;strokeWidth=1;rounded=1;absoluteArcSize=1;arcSize=2;fontSize=14;fontColor=#808080;align=left;html=1;" parent="1" vertex="1">
          <mxGeometry x="300" y="200" width="180" height="110" as="geometry" />
        </mxCell>
        <mxCell id="13" value="&lt;font color=&quot;#000000&quot;&gt;Gatsby/React&lt;/font&gt;&lt;br&gt;State manager - redux?&lt;br&gt;Unit testing - Jest&lt;br&gt;E2E testing - Cypress?&lt;br&gt;" style="dashed=0;connectable=0;html=1;fillColor=#5184F3;strokeColor=none;shape=mxgraph.gcp2.hexIcon;prIcon=cloud_endpoints;part=1;labelPosition=right;verticalLabelPosition=middle;align=left;verticalAlign=middle;spacingLeft=5;fontColor=#999999;fontSize=12;" parent="12" vertex="1">
          <mxGeometry y="0.5" width="20" height="19.5" relative="1" as="geometry">
            <mxPoint x="5" as="offset" />
          </mxGeometry>
        </mxCell>
        <mxCell id="18" value="" style="edgeStyle=orthogonalEdgeStyle;fontSize=12;html=1;endArrow=blockThin;endFill=1;rounded=0;strokeWidth=2;endSize=4;startSize=4;dashed=0;strokeColor=#4284F3;startArrow=blockThin;startFill=1;exitX=1;exitY=0.5;exitDx=0;exitDy=0;" parent="1" edge="1" source="6">
          <mxGeometry width="100" relative="1" as="geometry">
            <mxPoint x="210" y="280" as="sourcePoint" />
            <mxPoint x="297" y="280" as="targetPoint" />
            <Array as="points">
              <mxPoint x="180" y="280" />
            </Array>
          </mxGeometry>
        </mxCell>
        <mxCell id="19" value="" style="fontSize=12;html=1;endArrow=blockThin;endFill=1;rounded=0;strokeWidth=2;endSize=4;startSize=4;dashed=0;strokeColor=#4284F3;startArrow=blockThin;startFill=1;edgeStyle=orthogonalEdgeStyle;entryX=1;entryY=0.5;entryDx=0;entryDy=0;" parent="1" edge="1" target="9">
          <mxGeometry width="100" relative="1" as="geometry">
            <mxPoint x="180" y="180" as="sourcePoint" />
            <mxPoint x="180" y="490" as="targetPoint" />
            <Array as="points">
              <mxPoint x="220" y="180" />
              <mxPoint x="220" y="372" />
            </Array>
          </mxGeometry>
        </mxCell>
        <mxCell id="3" value="Core Banking Services" style="strokeColor=#dddddd;fillColor=#ffffff;shadow=1;strokeWidth=1;rounded=1;absoluteArcSize=1;arcSize=2;labelPosition=center;verticalLabelPosition=middle;align=center;verticalAlign=bottom;spacingLeft=0;fontColor=#999999;fontSize=12;whiteSpace=wrap;spacingBottom=2;html=1;fontStyle=1" parent="1" vertex="1">
          <mxGeometry x="120" y="148" width="60" height="72" as="geometry" />
        </mxCell>
        <mxCell id="6" value="MATI" style="strokeColor=#dddddd;fillColor=#ffffff;shadow=1;strokeWidth=1;rounded=1;absoluteArcSize=1;arcSize=2;labelPosition=center;verticalLabelPosition=middle;align=center;verticalAlign=bottom;spacingLeft=0;fontColor=#999999;fontSize=12;whiteSpace=wrap;spacingBottom=2;html=1;fontStyle=1" parent="1" vertex="1">
          <mxGeometry x="120" y="250" width="60" height="50" as="geometry" />
        </mxCell>
        <mxCell id="9" value="&lt;b&gt;Other APi&#39;s&lt;/b&gt;" style="strokeColor=#dddddd;fillColor=#ffffff;shadow=1;strokeWidth=1;rounded=1;absoluteArcSize=1;arcSize=2;labelPosition=center;verticalLabelPosition=middle;align=center;verticalAlign=bottom;spacingLeft=0;fontColor=#999999;fontSize=12;whiteSpace=wrap;spacingBottom=2;html=1;" parent="1" vertex="1">
          <mxGeometry x="120" y="329" width="60" height="61" as="geometry" />
        </mxCell>
        <mxCell id="C-yEnUiBXdjGMgicQ9S--27" value="&lt;font style=&quot;font-size: 10px;&quot; color=&quot;#b3b3b3&quot;&gt;&lt;b style=&quot;font-size: 10px;&quot;&gt;Third party services/API&#39;s&lt;/b&gt;&lt;/font&gt;" style="text;html=1;align=center;verticalAlign=middle;resizable=0;points=[];autosize=1;strokeWidth=4;fontSize=10;" vertex="1" parent="1">
          <mxGeometry x="110" y="120" width="140" height="20" as="geometry" />
        </mxCell>
        <mxCell id="C-yEnUiBXdjGMgicQ9S--28" value="&lt;font color=&quot;#b3b3b3&quot;&gt;&lt;b&gt;Server-side rendering Web App&lt;/b&gt;&lt;/font&gt;" style="text;html=1;align=center;verticalAlign=middle;resizable=0;points=[];autosize=1;strokeWidth=4;fontSize=10;" vertex="1" parent="1">
          <mxGeometry x="290" y="170" width="160" height="20" as="geometry" />
        </mxCell>
        <mxCell id="C-yEnUiBXdjGMgicQ9S--29" value="ai360&lt;br&gt;Mati&lt;br&gt;Oauth Provider&lt;br&gt;Cloud Services..." style="strokeColor=#dddddd;fillColor=#ffffff;shadow=1;strokeWidth=1;rounded=1;absoluteArcSize=1;arcSize=2;labelPosition=center;verticalLabelPosition=middle;align=center;verticalAlign=bottom;spacingLeft=0;fontColor=#999999;fontSize=12;whiteSpace=wrap;spacingBottom=2;html=1;fontStyle=1" vertex="1" parent="1">
          <mxGeometry x="-70" y="150" width="120" height="70" as="geometry" />
        </mxCell>
        <mxCell id="C-yEnUiBXdjGMgicQ9S--31" value="" style="edgeStyle=orthogonalEdgeStyle;fontSize=12;html=1;endArrow=blockThin;endFill=1;rounded=0;strokeWidth=2;endSize=4;startSize=4;dashed=0;strokeColor=#4284F3;" edge="1" parent="1">
          <mxGeometry width="100" relative="1" as="geometry">
            <mxPoint x="120" y="180" as="sourcePoint" />
            <mxPoint x="50" y="180" as="targetPoint" />
          </mxGeometry>
        </mxCell>
      </root>
    </mxGraphModel>
  </diagram>
</mxfile>
